<?xml version="1.0" encoding="UTF-8" standalone="no"?>
<svg
   width="141.11111mm"
   height="67.786751mm"
   viewBox="0 0 500.00001 240.18927"
   id="svg4567"
   version="1.1"
   xmlns="http://www.w3.org/2000/svg"
   xmlns:xlink="http://www.w3.org/1999/xlink">
  <g
     transform="translate(-74.308291,-644.12027)">
    <g
       transform="translate(34.338958,668.57887)">
    </g>
    <g
       id="g5751"
       transform="matrix(1.3061242,0,0,1.3061242,-22.747565,-270.70854)">
      
      <!-- Black logo elements changed to white -->
      <path
         d="m 131.71816,846.34434 -18.98387,-15.0948 26.76093,0 14.63854,-26.30414 0,26.30414 41.62786,0 0,-130.83467 -121.45333,183.89466 35.452,0 21.95787,-37.96519 0,0"
         style="fill:#FFFFFF;fill-opacity:1;fill-rule:nonzero;stroke:none" />
      <path
         d="m 155.20976,851.14807 8.07293,24.01346 32.47893,0 0,-24.01346 -40.55186,0"
         style="fill:#FFFFFF;fill-opacity:1;fill-rule:nonzero;stroke:none" />

      <!-- Rainbow bars changed to solid white -->
      <g transform="translate(34.338958,668.57887)">
        <path
           d="m 421.39199,165.39573 0,-1.1156 -265.33199,-0.67866 -5.81867,2.48906 271.15066,-0.6948"
           style="fill:#FFFFFF;fill-opacity:1;fill-rule:nonzero;stroke:none" />
        <path
           d="m 421.39199,169.19467 0,-1.11614 -274.15733,-0.70253 -5.928,2.53587 280.08533,-0.7172 0,0"
           style="fill:#FFFFFF;fill-opacity:1;fill-rule:nonzero;stroke:none" />
        <path
           d="m 421.39199,172.99053 0,-1.1156 -282.98399,-0.72293 -6.032,2.58013 289.01599,-0.7416 0,0"
           style="fill:#FFFFFF;fill-opacity:1;fill-rule:nonzero;stroke:none" />
        <path
           d="m 421.39199,176.78947 0,-1.11614 -291.81226,-0.74693 -6.13707,2.6256 297.94933,-0.76253 0,0"
           style="fill:#FFFFFF;fill-opacity:1;fill-rule:nonzero;stroke:none" />
        <path
           d="m 120.5188,181.3588 300.87319,-0.77093 0,-1.11614 -300.63786,-0.7692 -0.98173,0.42027 0.7464,2.236"
           style="fill:#FFFFFF;fill-opacity:1;fill-rule:nonzero;stroke:none" />
      </g>

      <!-- Text / lettering group - all changed to white -->
      <g
         style="fill:#FFFFFF;fill-opacity:1"
         transform="matrix(0.13333333,0,0,-0.13333333,34.338958,927.3522)">
        <g clip-path="url(#clipPath134)">
          <path d="m 1368.72,1006.3 0,-263.14 -88.99,0 0,456.78 120.19,0 38.09,-210.338 39.9,210.338 111.32,0 0,-456.78 -89.78,0 0,263.14 -44.63,-263.14 -39.91,0 -46.19,263.14" style="fill:#FFFFFF;fill-opacity:1;fill-rule:nonzero;stroke:none" />
          <path d="m 1631.64,743.16 0,456.78 157.51,0 0,-66.94 -59.06,0 0,-108.68 54.86,0 0,-67.734 -54.86,0 0,-147.785 59.06,0 0,-65.641 -157.51,0" style="fill:#FFFFFF;fill-opacity:1;fill-rule:nonzero;stroke:none" />
          <path d="m 1829.12,743.16 0,456.78 112.85,0 c 49.03,0 80.27,-5.44 93.74,-16.31 13.48,-10.86 20.22,-36.84 20.22,-77.92 l 0,-47.47 c 0,-33.17 -3.33,-55.35 -9.98,-66.521 -6.66,-11.172 -36.08,-19.785 -53.5,-25.828 16.86,-4.75 46.14,-12.567 53.08,-23.442 6.93,-10.879 10.4,-27.75 10.4,-50.59 l 0,-148.699 -95.35,0 0,156.949 c 0,9.52 -1.58,15.942 -4.73,19.243 -3.15,3.296 -12.96,4.949 -21.67,4.949 l -5.83,0 0,-181.141 z m 131.46,297.93 0,67.39 c 0,12.22 -1.47,19.7 -4.38,22.47 -2.93,2.76 -8.88,4.15 -17.83,4.15 l -9.69,0 0,-125.94 c 1.24,0 3.02,-0.12 5.32,-0.31 2.29,-0.2 3.93,-0.29 4.99,-0.29 8.33,0 14.03,1.33 17.05,4 3.01,2.66 4.54,7.73 4.54,15.21 l 0,13.32" style="fill:#FFFFFF;fill-opacity:1;fill-rule:nonzero;stroke:none" />
          <path d="m 2105.85,743.16 98.4492,0 0,456.777 -98.4492,0 z" style="fill:#FFFFFF;fill-opacity:1;fill-rule:nonzero;stroke:none" />
          <path d="m 2246.55,1107.65 c 0,42.55 6.28,68.97 18.85,79.24 12.57,10.27 50.2,21.71 100.29,21.71 51.21,0 76.71,-11.81 89.09,-22.81 12.38,-11 18.58,-37.06 18.58,-78.14 l 0,-63.65 -99.23,0 0,60.89 c 0,8.81 -1.12,14.78 -3.33,17.9 -2.23,3.13 -11.13,4.69 -17.24,4.69 -4.63,0 -7.88,-1.37 -9.72,-4.13 -1.86,-2.76 -2.79,-8.91 -2.79,-18.46 l 0,-266.218 c 0,-8.422 1.06,-14.383 3.2,-17.852 2.13,-3.468 5.79,-5.199 10.98,-5.199 4.44,0 12.64,1.309 15.15,3.969 2.5,2.648 3.75,6.351 3.75,11.109 l 0,106.992 99.23,0 0,-101.769 c 0,-42.082 -6.39,-68.59 -19.13,-79.524 -12.76,-10.918 -37.73,-22.847 -87.81,-22.847 -50.65,0 -88.68,12.058 -101.15,23.269 -12.48,11.2 -18.72,37.571 -18.72,79.102 l 0,271.728" style="fill:#FFFFFF;fill-opacity:1;fill-rule:nonzero;stroke:none" />
          <path d="m 2488.29,743.16 75.38,456.78 119.71,0 53.5,-456.78 -85.01,0 -10.05,80.531 -50.84,0 -7.51,-80.531 z m 117.73,163.809 31.15,0 -15.43,176.341 -15.72,-176.341" style="fill:#FFFFFF;fill-opacity:1;fill-rule:nonzero;stroke:none" />
          <path d="m 2758.28,743.16 0,456.78 91.8,0 49.17,-187.24 0,187.24 85.84,0 0,-456.78 -79.1,0 -62.66,223.863 0,-223.863 -85.05,0 0,0" style="fill:#FFFFFF;fill-opacity:1;fill-rule:nonzero;stroke:none" />
          <path d="m 3025.14,1148.23 0,37.8 -15.65,0 0,8.17 42.13,0 0,-8.17 -15.55,0 0,-37.8 -10.93,0" style="fill:#FFFFFF;fill-opacity:1;fill-rule:nonzero;stroke:none" />
          <path d="m 3057.95,1148.23 0,45.97 16.09,0 10.5,-34.98 10.37,34.98 16.2,0 0,-45.97 -10.24,0 0,37.07 -10.73,-37.07 -11.13,0 -10.82,37.07 0,-37.07 -10.24,0" style="fill:#FFFFFF;fill-opacity:1;fill-rule:nonzero;stroke:none" />
          <path d="m 1301.58,389.391 0,134.25 -15.85,0 -0.01,-150.102 108.14,0 0,15.852 -92.28,0" style="fill:#FFFFFF;fill-opacity:1;fill-rule:nonzero;stroke:none" />
          <path d="m 1855.32,507.789 0,15.852 -116.54,0 0,-150.102 116.54,0 0,15.852 -100.68,0 0,52.039 97.09,0 0,15.851 -97.09,0 0,50.508 100.68,0" style="fill:#FFFFFF;fill-opacity:1;fill-rule:nonzero;stroke:none" />
          <path d="m 2810.3,507.789 0,15.852 -116.53,0 0,-150.102 116.53,0 0,15.852 -100.68,0 0,52.039 97.09,0 0,15.851 -97.09,0 0,50.508 100.68,0" style="fill:#FFFFFF;fill-opacity:1;fill-rule:nonzero;stroke:none" />
          <path d="m 1991.5,438.762 c 13.25,3.816 22.75,13.886 22.75,25.777 l 0,31.633 c 0,15.156 -15.42,27.469 -34.44,27.469 l -99.33,0 0,-150.102 15.85,0 0,58.281 84.4,0 c 10.28,0 18.59,-13.191 18.59,-21.39 l 0,-36.891 15.85,0 0,39.262 c 0,12.148 -9.96,22.34 -23.67,25.961 z m -11.69,8.929 c -0.68,0 -55.74,0.059 -83.48,0 l 0,60.219 c 26.84,0.25 79.31,0.699 83.48,0.699 10.27,0 18.59,-6.629 18.59,-14.82 l 0,-26.879 c 0,-8.18 -8.32,-19.219 -18.59,-19.219 l 0,0" style="fill:#FFFFFF;fill-opacity:1;fill-rule:nonzero;stroke:none" />
          <path d="m 1487.49,523.641 -19.01,0 -70.48,-150.102 17.51,0 14.64,31.18 95.67,0 14.64,-31.18 17.51,0 z m -49.9,-103.071 40.4,86.039 40.39,-86.039 -80.79,0" style="fill:#FFFFFF;fill-opacity:1;fill-rule:nonzero;stroke:none" />
          <path d="m 2375.19,523.641 -19.02,0 -70.49,-150.102 17.52,0 14.65,31.18 95.66,0 14.64,-31.18 17.51,0 z m -49.91,-103.071 40.4,86.039 40.4,-86.039 -80.8,0" style="fill:#FFFFFF;fill-opacity:1;fill-rule:nonzero;stroke:none" />
          <path d="m 1710.43,480.461 0,15.711 c 0,15.156 -15.42,27.469 -34.44,27.469 l -66.66,0 c -19.02,0 -34.44,-12.313 -34.44,-27.469 l 0,-29.102 c 0,-15.172 15.42,-27.461 34.44,-27.461 l 66.66,0 c 10.27,0 18.59,-6.64 18.59,-14.828 l 0,-20.551 c 0,-8.199 -8.32,-14.839 -18.59,-14.839 l -66.66,0 c -10.27,0 -18.59,6.64 -18.59,14.839 l 0,16.34 -15.85,0 0,-19.57 c 0,-15.16 15.42,-27.461 34.44,-27.461 l 66.66,0 c 19.02,0 34.44,12.301 34.44,27.461 l 0,26.988 c 0,15.172 -15.42,27.461 -34.44,27.461 l -66.66,0 c -10.27,0 -18.59,6.641 -18.59,14.832 l 0,22.668 c 0,8.192 8.32,14.84 18.59,14.84 l 66.66,0 c 10.27,0 18.59,-6.648 18.59,-14.84 l 0,-12.488 15.85,0" style="fill:#FFFFFF;fill-opacity:1;fill-rule:nonzero;stroke:none" />
          <path d="m 2958.58,480.461 0,15.711 c 0,15.156 -15.42,27.469 -34.44,27.469 l -66.66,0 c -19.02,0 -34.43,-12.313 -34.43,-27.469 l 0,-29.102 c 0,-15.172 15.41,-27.461 34.43,-27.461 l 66.66,0 c 10.28,0 18.59,-6.64 18.59,-14.828 l 0,-20.551 c 0,-8.199 -8.31,-14.839 -18.59,-14.839 l -66.66,0 c -10.26,0 -18.58,6.64 -18.58,14.839 l 0,16.34 -15.85,0 0,-19.57 c 0,-15.16 15.41,-27.461 34.43,-27.461 l 66.66,0 c 19.02,0 34.44,12.301 34.44,27.461 l 0,26.988 c 0,15.172 -15.42,27.461 -34.44,27.461 l -66.66,0 c -10.26,0 -18.58,6.641 -18.58,14.832 l 0,22.668 c 0,8.192 8.32,14.84 18.58,14.84 l 66.66,0 c 10.28,0 18.59,-6.648 18.59,-14.84 l 0,-12.488 15.85,0" style="fill:#FFFFFF;fill-opacity:1;fill-rule:nonzero;stroke:none" />
          <path d="m 2267.68,480.461 0,15.711 c 0,15.156 -15.42,27.469 -34.44,27.469 l -77.44,0 c -19.03,0 -34.44,-12.313 -34.44,-27.469 l 0,-95.172 c 0,-15.16 15.41,-27.461 34.44,-27.461 l 77.44,0 c 19.02,0 34.44,12.301 34.44,27.461 l 0,46.691 -76.97,0 0,-15.851 61.12,0 0,-27.61 c 0,-8.199 -8.32,-14.839 -18.59,-14.839 l -77.44,0 c -10.28,0 -18.6,6.64 -18.6,14.839 l 0,88.719 c 0,8.192 8.32,14.84 18.6,14.84 l 77.44,0 c 10.27,0 18.59,-6.648 18.59,-14.84 l 0,-12.488 15.85,0" style="fill:#FFFFFF;fill-opacity:1;fill-rule:nonzero;stroke:none" />
          <path d="m 2628.84,523.641 -71.35,-129.18 -71.34,129.18 -24.23,0 0,-149.68 15.85,0 0,132.078 73.16,-132.5 13.12,0 73.17,132.5 0,-132.078 15.85,0 0,149.68 -24.23,0" style="fill:#FFFFFF;fill-opacity:1;fill-rule:nonzero;stroke:none" />
          <path d="m 3163.93,388.871 0,-9.23 c 0,-3.59 -3.63,-6.481 -8.12,-6.481 l -20.99,0 c -4.49,0 -8.12,2.891 -8.12,6.481 l 0,38.757 c 0,3.582 3.63,6.493 8.12,6.493 l 20.99,0 c 4.49,0 8.12,-2.911 8.12,-6.493 l 0,-5.457 6.93,0 0,6.868 c 0,6.632 -6.74,12.011 -15.05,12.011 l -20.99,0 c -8.32,0 -15.05,-5.379 -15.05,-12.011 l 0,-41.579 c 0,-6.621 6.73,-12 15.05,-12 l 20.99,0 c 8.31,0 15.05,5.379 15.05,12 l 0,10.641 -6.93,0" style="fill:#FFFFFF;fill-opacity:1;fill-rule:nonzero;stroke:none" />
          <path d="m 3031.42,366.23 6.9297,0 0,65.5898 -6.9297,0 z" style="fill:#FFFFFF;fill-opacity:1;fill-rule:nonzero;stroke:none" />
          <path d="m 3101.23,431.82 0,-59.601 -37.19,59.601 -12.44,0 0,-65.59 6.93,0 0,61.329 38.28,-61.329 11.34,0 0,65.59 -6.92,0 0,0" style="fill:#FFFFFF;fill-opacity:1;fill-rule:nonzero;stroke:none" />
          <path d="m 2987.82,390.191 -16.87,0 0,-20.203 10.03,0 0.56,-2.207 0,-8.98 c 0,-3.242 -3.28,-5.86 -7.35,-5.86 l -4.29,0 -4.33,-6.281 8.62,0 c 7.53,0 13.63,4.86 13.63,10.879 l 0,32.652" style="fill:#FFFFFF;fill-opacity:1;fill-rule:nonzero;stroke:none" />
        </g>
      </g>
    </g>
  </g>
</svg>