<?xml version="1.0" encoding="UTF-8"?>
<!-- Generator: Adobe Illustrator 26.0.3, SVG Export Plug-In . SVG Version: 6.00 Build 0) -->
<svg enable-background="new 0 0 3839 1697.1" version="1.1" viewBox="0 0 3839 1697.1" xml:space="preserve" xmlns="http://www.w3.org/2000/svg">
<style type="text/css">
.st0{fill:#FFFFFF;}
.st1{fill:none;stroke:#FFFFFF;stroke-width:15;stroke-linecap:round;stroke-linejoin:round;stroke-miterlimit:10;}
.st2{stroke:#FFFFFF;stroke-width:15;stroke-linecap:round;stroke-linejoin:round;stroke-miterlimit:10;}
.st3{fill:none;stroke:#FFFFFF;stroke-width:15;stroke-miterlimit:10;}
</style>

<!-- Main complex logo path (was black fill, now white) -->
<path d="m2759.4 15 943.6 224.2v292.5h-324.1l42.4 27.6 282.6 183.7-210.8 265.7h-124.9l20.6 24.6 317.7 379.8-213.4 269h-1065.8l-383.9-484-11.8-14.8-11.8 14.8-383.9 484h-352.9l530.6-756.3 6.4-9.2-7-8.8-532.5-671.3 938.4-221.5h76.9l81.3 102.4 11.8 14.8 11.8-14.8 81.1-102.4h72.8l21.4 19.8 11.9 11 10.1-12.7 14.3-18.1h147.1m1.7-15h-156.1l-18.8 23.7-25.8-23.7h-85.9l-85.8 108.1-85.6-108.1h-85.9l-963 227.3 547.2 689.8-547.2 779.9h389l388.5-489.7 388.5 489.7h1080.3l225.5-284.3-325.6-389.2h100.1l225.5-284.3-296.4-192.8h288.4v-319.1l-956.9-227.3z" fill="#FFFFFF"/>

<!-- Second large path (was black, now white) -->
<path d="m3658.2 287.1v199.7h-673.4v312.4h617.3l-130.6 164.6h-486.7v508.8h617.2l-130.6 164.6h-761.2v-673.4h-207.4l536.8-676.7h618.6m-973 0-506 637.9-29.5 37.2 29.5 37.2 424.3 534.9 81.7 103h-236.2l-370.5-467.1-46.9-59.1-46.9 59.1-370.5 467.1h-236.2l506-637.9 29.5-37.2-29.5-37.2-506-637.9h236.3l370.5 467.1 46.9 59.1 46.9-59.1 370.4-467.1h236.2m-1042.1-59.8h-389l583 734.9-583 734.9h389l388.5-489.7 388.5 489.7h1080.3l225.5-284.3h-681.3v-389.2h455.8l225.5-284.3h-681.3v-192.7h673.4v-319.3h-707.3l-631.7 796.4h271.4v473.4l-424.3-534.9 582.9-734.9h-389l-388.4 489.7" fill="#FFFFFF"/>

<!-- Small polygon elements (registration mark style) - now white -->
<polygon points="3670.1 1697.1 3670.1 1608.4 3704.3 1608.4 3704.3 1588.3 3612.8 1588.3 3612.8 1608.4 3650 1608.4 3650 1697.1" fill="#FFFFFF"/>
<polygon points="3781.7 1668.5 3753.1 1588.3 3721.5 1588.3 3721.5 1697.1 3741.6 1697.1 3741.6 1614 3770.3 1697.1 3790.4 1697.1 3819 1614 3819 1697.1 3839 1697.1 3839 1588.3 3810.4 1588.3" fill="#FFFFFF"/>

<!-- Text/lettering paths - now white fill and white stroke where applicable -->
<path d="m1493.2 763.6h7.1c8.2 0 12.1-2.4 12.1-8.4 0-6.2-4.1-8.9-12.9-8.9h-6.4l0.1 17.3m51 4.1c0 23.9-19.5 43.4-43.5 43.4s-43.6-19.5-43.6-43.4c0-24 19.6-43.6 43.6-43.6s43.5 19.5 43.5 43.6zm-43.5-53.8c-29.8 0-53.7 24-53.7 53.8 0 29.6 23.9 53.7 53.7 53.7 29.7 0 53.9-24.1 53.9-53.7 0-29.8-24.2-53.8-53.9-53.8zm1.4 23.2c16.8 0 25.4 5.8 25.4 17.2 0 7.8-4.9 13.7-13.2 15.8l13.4 26.6h-16.1l-11.3-24.3h-7.1v24.3h-14.5v-59.5l23.4-0.1z" fill="#FFFFFF"/>

<path d="m601.7 713.9h-281.5v75.9h103.7v421.8h74.2v-421.8h103.7c-0.1-25.4-0.1-50.6-0.1-75.9z" fill="#FFFFFF"/>

<path d="m226.3 726.2c-10.2-8.9-23.5-13.2-36.8-13.2-17.6 0-35.3 7.4-46.3 21.5-11 12.3-12.9 29.1-17.7 44.2-41.9 144.2-83.7 288.5-125.5 432.7h77.4c12.2-41.8 24.2-83.6 36.5-125.2 33.5 0 66.9-0.1 100.3-0.1 16.7 0 33.4 0 50.2 0.1 12.2 41.8 24.2 83.6 36.3 125.2h77.8c-44-151.3-88.1-302.4-132.1-453.7-3.6-11.9-10.3-23.2-20.1-31.5zm-55.5 289.1c-12.2 0-24.3 0-36.5-0.1 18.2-62.7 36.3-125.4 54.7-188.1 18.3 62.7 36.5 125.4 54.6 188.1-24.2 0-48.5 0.1-72.8 0.1z" fill="#FFFFFF"/>

<path d="m752.5 714.6c-4.6-1.2-9.3-1.8-14.1-1.8-19 0-37.8 9.3-48.6 24.9-8.6 11.3-10.3 25.7-14.6 38.9-42.1 144.9-84.3 289.9-126.1 435h77.3c12-41.8 24.3-83.4 36.3-125.2h150.3c12.2 41.8 24.1 83.4 36.1 125.2 26-0.2 51.9 0 78-0.2-43.9-151.1-88.1-302.2-131.9-453.3-5.5-20.6-21.6-38.7-42.7-43.5zm-69.1 300.8c18-62.9 36.3-125.8 54.5-188.5 18 62.9 36.5 125.6 54.5 188.5h-109z" fill="#FFFFFF"/>

<path d="m1164.9 1004.8c14.6-10.8 31.5-18 45.1-30.2 25.7-22.3 39.7-55.7 42.3-89.1 3.8-31.9 2.2-65.8-12.7-94.9-21.6-44.9-69-75.9-118.9-76.8-19.8 0-39.4 0.1-59.2 0.1-9.9 0-19.7 0-29.6-0.1h-1.8c-6.9 0-13.8 0.9-20.4 3.1-24.3 7.7-42.5 31.9-42.8 57.6v437.1h74.9c0-135.3-0.2-270.7 0-406 0-8.6 7.9-16.1 16.5-16.1h0.3c12.8 0 25.6 0.1 38.4 0.1 6.4 0 12.8 0 19.2-0.1h1.9c27 0 52.2 20.9 58 47.2 5 20.7 5.7 44-5.7 63-14.7 25.2-41.1 41.1-67.8 51.4-14 5.5-26.6 15.9-31.9 30.3-6.7 18.7-3.8 40.4 7.5 56.9 38.2 57.7 76.2 115.6 114.6 173.4h88.1c-40.1-60.1-81-119.8-120.3-180.4-4.1-8.7-3.8-20.5 4.3-26.5z" fill="#FFFFFF"/>

<path d="m1320.1 1211.6h78.6v-497.7h-78.6v497.7z" fill="#FFFFFF"/>

</svg>